<?xml version="1.0" encoding="UTF-8" standalone="no"?>
<svg
   xmlns:dc="http://purl.org/dc/elements/1.1/"
   xmlns:cc="http://creativecommons.org/ns#"
   xmlns:rdf="http://www.w3.org/1999/02/22-rdf-syntax-ns#"
   xmlns:svg="http://www.w3.org/2000/svg"
   xmlns="http://www.w3.org/2000/svg"
   xmlns:sodipodi="http://sodipodi.sourceforge.net/DTD/sodipodi-0.dtd"
   xmlns:inkscape="http://www.inkscape.org/namespaces/inkscape"
   enable-background="new 0 0 850.39 793.7"
   version="1.1"
   viewBox="0 0 399.99999 399.99999"
   xml:space="preserve"
   id="svg2"
   inkscape:version="0.91 r13725"
   sodipodi:docname="gear.svg"
   width="400"
   height="400"><metadata
   id="metadata12"><rdf:RDF><cc:Work
       rdf:about=""><dc:format>image/svg+xml</dc:format><dc:type
         rdf:resource="http://purl.org/dc/dcmitype/StillImage" /><dc:title></dc:title></cc:Work></rdf:RDF></metadata><defs
   id="defs10" /><sodipodi:namedview
   pagecolor="#ffffff"
   bordercolor="#666666"
   borderopacity="1"
   objecttolerance="10"
   gridtolerance="10"
   guidetolerance="10"
   inkscape:pageopacity="0"
   inkscape:pageshadow="2"
   inkscape:window-width="2560"
   inkscape:window-height="1377"
   id="namedview8"
   showgrid="false"
   inkscape:zoom="0.29734156"
   inkscape:cx="425.19501"
   inkscape:cy="393.48687"
   inkscape:window-x="1672"
   inkscape:window-y="-8"
   inkscape:window-maximized="1"
   inkscape:current-layer="svg2" />
	<path
   d="m 359.22752,202.77143 c 0.0617,-1.92115 1.51804,-4.19764 3.23764,-5.0586 l 34.91395,-17.48377 c 1.71843,-0.86097 2.87648,-3.11765 2.57241,-5.01667 L 391.90225,138.114 c -0.51495,-1.85241 -2.50717,-3.46833 -4.42483,-3.59298 l -39.70459,-2.56775 c -1.91882,-0.12466 -4.19997,-1.62873 -5.06909,-3.34251 l -5.3988,-9.92731 c -0.96698,-1.66135 -0.9565,-4.37356 0.0245,-6.02675 l 20.04919,-33.80483 c 0.98096,-1.65319 0.74679,-4.18948 -0.51961,-5.6353 L 329.84405,45.67035 c -1.42135,-1.29436 -3.95997,-1.59028 -5.63996,-0.65709 l -34.54695,19.17075 c -1.68116,0.9332 -4.40153,0.88077 -6.04657,-0.11418 l -9.33547,-5.3021 c -1.69746,-0.90174 -3.14328,-3.21201 -3.21201,-5.13317 l -1.42135,-39.60439 c -0.0687,-1.92115 -1.63106,-3.94716 -3.47066,-4.50288 L 228.75463,0.57511 c -1.89203,-0.34252 -4.18366,0.76194 -5.09356,2.45591 L 205.081,37.61642 c -0.9099,1.69397 -2.44891,3.06406 -3.42056,3.04542 l -0.88659,0 c -5.39181,0 -12.48575,0.53475 -12.48575,0.53475 -1.91649,0.14446 -4.38288,-1.02873 -5.47918,-2.60853 L 160.09645,5.8877 c -1.09631,-1.57863 -3.50911,-2.45008 -5.36152,-1.93746 l -35.73879,12.05584 c -1.78368,0.71766 -3.11998,2.87299 -2.96969,4.78948 l 3.04658,38.86809 c 0.15029,1.91649 -1.04853,4.33745 -2.66328,5.38016 l -11.36264,7.86752 c -1.54368,1.14523 -4.25939,1.48193 -6.03608,0.74679 L 62.21555,58.42405 c -1.77669,-0.73514 -4.28153,-0.16777 -5.56773,1.26057 L 33.71515,88.1221 c -1.12426,1.55883 -1.09397,4.08696 0.0687,5.61783 l 23.46392,30.90387 c 1.16271,1.53086 1.45281,4.21046 0.64544,5.95569 l -6.38093,15.27601 c -0.67456,1.79999 -2.77513,3.55221 -4.66716,3.89357 L 7.8081,156.81873 c -1.89202,0.34136 -3.68619,2.17397 -3.9891,4.07298 0,0 -3.819,24.00567 -3.819,38.33567 l 0,0.0769 c 0.001,0.0851 1.48077,0.6932 3.28541,1.35261 l 36.42966,13.30594 c 1.80582,0.65941 3.50445,2.75648 3.7759,4.65899 l 3.41474,18.61968 c 0.4264,1.87456 -0.37631,4.47959 -1.78252,5.79026 l -28.8534,26.87166 c -1.4062,1.31067 -1.90833,3.81435 -1.11494,5.5654 l 15.73621,30.51009 c 0.96931,1.66018 3.29706,2.67377 5.17278,2.25202 l 38.00246,-8.53858 c 1.87572,-0.42174 4.45046,0.41242 5.72268,1.85358 l 14.00845,14.5665 c 1.3899,1.32815 2.13902,3.93784 1.66368,5.80074 l -9.67217,37.91975 c -0.47533,1.8629 0.46485,4.2291 2.08892,5.25783 l 29.6666,16.71833 c 1.72076,0.85747 4.23259,0.43922 5.58287,-0.92853 l 27.51827,-27.89574 c 1.35028,-1.36892 3.97395,-2.0796 5.82986,-1.58096 l 19.56686,4.3491 c 1.89203,0.33786 3.93784,2.10639 4.54482,3.93084 l 12.27837,36.87238 c 0.60699,1.82329 2.6761,3.35998 4.59841,3.41473 0,0 1.0299,0.0291 3.30639,0.0291 11.80303,0 31.14271,-2.52814 31.14271,-2.52814 1.906,-0.24932 3.78987,-1.99222 4.18482,-3.87376 l 8.12733,-38.62576 c 0.39611,-1.88154 2.21124,-3.9192 4.03453,-4.52851 l 17.21464,-6.52656 c 1.76854,-0.75495 4.43881,-0.38563 5.93589,0.82019 l 30.19785,24.32721 c 1.49708,1.20582 4.02289,1.30951 5.61317,0.22952 l 28.34777,-21.49734 c 1.46795,-1.24193 2.10873,-3.72696 1.42485,-5.52346 l -14.13661,-37.12635 c -0.68388,-1.79649 -0.26796,-4.50055 0.92388,-6.00811 l 9.35877,-12.7572 c 1.08116,-1.58912 3.52891,-2.7227 5.44074,-2.51649 l 38.63625,4.14755 c 1.91183,0.20504 4.09745,-1.07184 4.85822,-2.83688 l 12.65584,-34.6087 c 0.56155,-1.83843 -0.2435,-4.27686 -1.79067,-5.41744 l -32.06425,-23.66314 c -1.54718,-1.14174 -2.66329,-3.64075 -2.48037,-5.55492 l 0.83184,-13.1603 z M 200.2577,316.98154 c -64.61898,0 -117.00504,-52.38372 -117.00504,-117.00504 0,-64.62015 52.38373,-117.00504 117.00504,-117.00504 64.62132,0 117.00505,52.38372 117.00505,117.00504 0,64.62132 -52.38373,117.00504 -117.00505,117.00504 z"
   id="path4"
   inkscape:connector-curvature="0"
   style="fill:#ffffff" />
<ellipse
   cx="572"
   cy="-71.700012"
   rx="0"
   ry="2"
   id="ellipse6" />
</svg>