<?xml version="1.0" encoding="UTF-8" standalone="no"?><!DOCTYPE svg PUBLIC "-//W3C//DTD SVG 1.1//EN" "http://www.w3.org/Graphics/SVG/1.1/DTD/svg11.dtd"><svg width="100%" height="100%" viewBox="0 0 298 300" version="1.1" xmlns="http://www.w3.org/2000/svg" xmlns:xlink="http://www.w3.org/1999/xlink" xml:space="preserve" xmlns:serif="http://www.serif.com/" style="fill-rule:evenodd;clip-rule:evenodd;stroke-linejoin:round;stroke-miterlimit:1.41421;"><rect id="Artboard2" x="0" y="0" width="521.52" height="360.24" style="fill:none;"/><clipPath id="_clip1"><rect x="0" y="0" width="521.52" height="360.24"/></clipPath><g clip-path="url(#_clip1)"><path d="M297.373,177.534c-12.931,69.643 -74.061,122.447 -147.426,122.447c-82.758,0 -149.947,-67.189 -149.947,-149.947c0,-82.758 67.189,-149.947 149.947,-149.947c73.365,0 134.495,52.804 147.426,122.448l-65.404,0c-11.5,-34.273 -43.897,-58.994 -82.022,-58.994c-47.737,0 -86.493,38.756 -86.493,86.493c0,47.737 38.756,86.493 86.493,86.493c38.125,0 70.522,-24.721 82.022,-58.993l65.404,0Z" style="fill:#de7e24;"/></g></svg>