<?xml version="1.0" encoding="UTF-8" standalone="no"?><!DOCTYPE svg PUBLIC "-//W3C//DTD SVG 1.1//EN" "http://www.w3.org/Graphics/SVG/1.1/DTD/svg11.dtd"><svg width="100%" height="100%" viewBox="0 0 225 300" version="1.1" xmlns="http://www.w3.org/2000/svg" xmlns:xlink="http://www.w3.org/1999/xlink" xml:space="preserve" xmlns:serif="http://www.serif.com/" style="fill-rule:evenodd;clip-rule:evenodd;stroke-linejoin:round;stroke-miterlimit:1.41421;"><rect id="Artboard2" x="-297.36" y="0" width="521.52" height="360.24" style="fill:none;"/><clipPath id="_clip1"><rect x="-297.36" y="0" width="521.52" height="360.24"/></clipPath><g clip-path="url(#_clip1)"><path d="M2.533,122.535l0,-122.448l132.982,0l0,-0.087c48.963,0 88.655,39.692 88.655,88.655c0,23.783 -9.366,45.379 -24.61,61.301c15.244,15.922 24.61,37.518 24.61,61.302c0,48.962 -39.692,88.654 -88.655,88.654l-132.982,0l0,-3.863l0,-118.515l62.746,0l0,-54.999l-62.746,0Zm132.982,122.515l0,0.34c18.851,-0.001 34.132,-15.282 34.132,-34.132c0,-17.831 -13.672,-32.468 -31.104,-34c-1.005,0.034 -2.015,0.051 -3.028,0.051l0,0.156l-70.236,0l0,67.585l70.236,0Zm0,-190.101l-70.236,0l0,67.654l70.236,0c1.014,0 2.023,0.017 3.028,0.051c17.432,-1.532 31.104,-16.169 31.104,-33.999c0,-18.851 -15.281,-34.132 -34.132,-34.132l0,0.426Z" style="fill:#fff;"/><path d="M0.013,177.534c-12.931,69.643 -74.061,122.447 -147.426,122.447c-82.758,0 -149.947,-67.189 -149.947,-149.947c0,-82.758 67.189,-149.947 149.947,-149.947c73.365,0 134.495,52.804 147.426,122.448l-65.404,0c-11.5,-34.273 -43.897,-58.994 -82.022,-58.994c-47.737,0 -86.493,38.756 -86.493,86.493c0,47.737 38.756,86.493 86.493,86.493c38.125,0 70.522,-24.721 82.022,-58.993l65.404,0Z" style="fill:#4b4b4b;"/></g></svg>